<svg width="194" height="60" viewBox="0 0 194 60" fill="none" xmlns="http://www.w3.org/2000/svg">
<g clip-path="url(#clip0_1659_3414)">
<mask id="mask0_1659_3414" style="mask-type:luminance" maskUnits="userSpaceOnUse" x="-25" y="-22" width="244" height="103">
<path d="M218.59 -21.5625L-24.2349 -21.5625L-24.2349 80.625L218.59 80.625L218.59 -21.5625Z" fill="white"/>
</mask>
<g mask="url(#mask0_1659_3414)">
<path d="M189.466 53.9583C189.466 54.2513 189.221 54.5025 188.936 54.5025L121.835 54.5025C121.55 54.5025 121.305 54.2513 121.305 53.9583L121.305 44.6228C121.305 44.3298 121.55 44.0786 121.835 44.0786L188.936 44.0786C189.221 44.0786 189.466 44.3298 189.466 44.6228L189.466 53.9583Z" fill="#2A2862"/>
</g>
<mask id="mask1_1659_3414" style="mask-type:luminance" maskUnits="userSpaceOnUse" x="-25" y="-22" width="244" height="103">
<path d="M218.59 -21.5625L-24.2349 -21.5625L-24.2349 80.625L218.59 80.625L218.59 -21.5625Z" fill="white"/>
</mask>
<g mask="url(#mask1_1659_3414)">
<path d="M180.451 40.5203C180.451 40.8133 180.206 41.0645 179.921 41.0645L134.358 41.0645C134.072 41.0645 133.828 40.8133 133.828 40.5203L133.828 31.1848C133.828 30.8918 134.072 30.6406 134.358 30.6406L179.921 30.6406C180.206 30.6406 180.451 30.8918 180.451 31.1848L180.451 40.5203Z" fill="#CE2027"/>
</g>
<mask id="mask2_1659_3414" style="mask-type:luminance" maskUnits="userSpaceOnUse" x="-25" y="-22" width="244" height="103">
<path d="M218.59 -21.5625L-24.2349 -21.5625L-24.2349 80.625L218.59 80.625L218.59 -21.5625Z" fill="white"/>
</mask>
<g mask="url(#mask2_1659_3414)">
<path d="M186.08 26.2451C186.08 26.6219 185.754 26.9568 185.387 26.9568L127.546 26.9568C127.179 26.9568 126.853 26.6219 126.853 26.2451L126.853 17.1609C126.853 16.7841 127.179 16.4492 127.546 16.4492L185.387 16.4492C185.754 16.4492 186.08 16.7841 186.08 17.1609L186.08 26.2451Z" fill="#43BBCE"/>
</g>
<mask id="mask3_1659_3414" style="mask-type:luminance" maskUnits="userSpaceOnUse" x="-25" y="-22" width="244" height="103">
<path d="M218.59 -21.5625L-24.2349 -21.5625L-24.2349 80.625L218.59 80.625L218.59 -21.5625Z" fill="white"/>
</mask>
<g mask="url(#mask3_1659_3414)">
<path d="M170.62 12.3048C170.62 12.5979 170.376 12.849 170.09 12.849L134.317 12.849C134.031 12.849 133.787 12.5979 133.787 12.3048L133.787 2.92752C133.787 2.63448 134.031 2.3833 134.317 2.3833L170.09 2.3833C170.376 2.3833 170.62 2.63448 170.62 2.92752L170.62 12.3048Z" fill="#B2CC53"/>
</g>
<mask id="mask4_1659_3414" style="mask-type:luminance" maskUnits="userSpaceOnUse" x="-25" y="-22" width="244" height="103">
<path d="M218.59 -21.5625L-24.2349 -21.5625L-24.2349 80.625L218.59 80.625L218.59 -21.5625Z" fill="white"/>
</mask>
<g mask="url(#mask4_1659_3414)">
<path d="M6.56194 34.5341L9.41726 34.5341L9.41726 24.78L11.6607 23.0218L6.88826 23.0218L7.82644 16.7842L27.1203 16.7842C28.6703 16.7842 29.9756 18.1238 29.9756 19.7564L29.9756 40.8135L23.2044 40.8135L23.2044 23.0218L16.2292 23.0218L16.2292 40.8135L5.66455 40.8135L6.56194 34.5341Z" fill="#43BBCE"/>
</g>
<mask id="mask5_1659_3414" style="mask-type:luminance" maskUnits="userSpaceOnUse" x="-25" y="-22" width="244" height="103">
<path d="M218.59 -21.5625L-24.2349 -21.5625L-24.2349 80.625L218.59 80.625L218.59 -21.5625Z" fill="white"/>
</mask>
<g mask="url(#mask5_1659_3414)">
<path d="M37.3175 23.0636L33.2793 23.0636L34.1359 16.7842L41.4374 16.7842C42.9058 16.7842 44.1703 18.0819 44.1703 19.6309L44.1703 40.8135L37.3583 40.8135L37.3583 23.0636L37.3175 23.0636Z" fill="#43BBCE"/>
</g>
<mask id="mask6_1659_3414" style="mask-type:luminance" maskUnits="userSpaceOnUse" x="-25" y="-22" width="244" height="103">
<path d="M218.59 -21.5625L-24.2349 -21.5625L-24.2349 80.625L218.59 80.625L218.59 -21.5625Z" fill="white"/>
</mask>
<g mask="url(#mask6_1659_3414)">
<path d="M54.8982 35.5388L52.41 40.8135L47.2296 40.8135L46.9033 34.6597L54.4495 32.6921L53.7969 23.0636L49.0244 23.0636L49.7586 16.7842L58.0391 16.7842C59.6707 16.7842 60.4865 17.9563 60.6089 19.5053L61.3023 32.3153L62.6076 39.7251L55.9996 41.1903L54.8982 35.5388Z" fill="#43BBCE"/>
</g>
<mask id="mask7_1659_3414" style="mask-type:luminance" maskUnits="userSpaceOnUse" x="-25" y="-22" width="244" height="103">
<path d="M218.59 -21.5625L-24.2349 -21.5625L-24.2349 80.625L218.59 80.625L218.59 -21.5625Z" fill="white"/>
</mask>
<g mask="url(#mask7_1659_3414)">
<path d="M64.9326 21.389L66.3603 16.7422L86.8778 16.7422L87.612 21.2634L85.0422 34.7433C82.3093 37.7574 76.5171 40.1436 69.6235 41.0227L68.563 41.0227L64.9326 21.389ZM79.2092 31.5198L80.5961 23.0635L71.867 23.0635L73.7025 33.6548C75.946 33.3618 77.8632 32.5664 79.2092 31.5198Z" fill="#43BBCE"/>
</g>
<mask id="mask8_1659_3414" style="mask-type:luminance" maskUnits="userSpaceOnUse" x="-25" y="-22" width="244" height="103">
<path d="M218.59 -21.5625L-24.2349 -21.5625L-24.2349 80.625L218.59 80.625L218.59 -21.5625Z" fill="white"/>
</mask>
<g mask="url(#mask8_1659_3414)">
<path d="M92.2625 34.5341L105.764 34.5341L105.764 23.0636L99.4009 23.0636L99.4009 29.971L92.9152 30.9339L92.9152 23.0636L90.4678 23.0636L91.3244 16.7842L109.639 16.7842C111.23 16.7842 112.495 18.1657 112.495 19.7564L112.495 36.1249L111.067 40.8554L91.3652 40.8554L92.2625 34.5341Z" fill="#43BBCE"/>
</g>
<mask id="mask9_1659_3414" style="mask-type:luminance" maskUnits="userSpaceOnUse" x="-25" y="-22" width="244" height="103">
<path d="M218.59 -21.5625L-24.2349 -21.5625L-24.2349 80.625L218.59 80.625L218.59 -21.5625Z" fill="white"/>
</mask>
<g mask="url(#mask9_1659_3414)">
<path d="M5.99053 52.2421L6.80634 52.2421L6.80634 48.6419L7.29583 48.2232L6.1537 48.2232L6.27607 47.3022L10.967 47.3022C11.1301 47.3022 11.3341 47.4697 11.3341 47.679L11.3341 53.1631L10.3143 53.1631L10.3143 48.1814L7.8261 48.1814L7.8261 53.1631L5.86816 53.1631L5.99053 52.2421Z" fill="white"/>
</g>
<mask id="mask10_1659_3414" style="mask-type:luminance" maskUnits="userSpaceOnUse" x="-25" y="-22" width="244" height="103">
<path d="M218.59 -21.5625L-24.2349 -21.5625L-24.2349 80.625L218.59 80.625L218.59 -21.5625Z" fill="white"/>
</mask>
<g mask="url(#mask10_1659_3414)">
<path d="M13.6187 48.1812L12.395 48.1812L12.5174 47.2603L14.2714 47.2603C14.4345 47.2603 14.5977 47.4277 14.5977 47.5952L14.5977 50.3581L13.5779 50.5674L13.5779 48.1812L13.6187 48.1812Z" fill="white"/>
</g>
<mask id="mask11_1659_3414" style="mask-type:luminance" maskUnits="userSpaceOnUse" x="-25" y="-22" width="244" height="103">
<path d="M218.59 -21.5625L-24.2349 -21.5625L-24.2349 80.625L218.59 80.625L218.59 -21.5625Z" fill="white"/>
</mask>
<g mask="url(#mask11_1659_3414)">
<path d="M15.7805 52.9955C16.4332 52.7443 17.2898 52.3675 17.4937 52.242L16.9227 52.0745L15.7397 48.2231L15.8621 47.3021L16.5556 47.3021L17.9832 51.9489C18.5135 51.6559 18.9214 51.4047 19.0438 51.1954L19.4925 47.2603L20.3898 47.2603L20.4306 47.9719L20.0227 51.5721C19.2477 52.3675 17.6569 53.2885 16.1476 53.8746L15.7805 52.9955Z" fill="white"/>
</g>
<mask id="mask12_1659_3414" style="mask-type:luminance" maskUnits="userSpaceOnUse" x="-25" y="-22" width="244" height="103">
<path d="M218.59 -21.5625L-24.2349 -21.5625L-24.2349 80.625L218.59 80.625L218.59 -21.5625Z" fill="white"/>
</mask>
<g mask="url(#mask12_1659_3414)">
<path d="M22.3476 48.1812L21.4502 48.1812L21.5726 47.2603L23.0002 47.2603C23.1634 47.2603 23.3266 47.4277 23.3266 47.5952L23.3266 53.1211L22.3068 53.1211L22.3068 48.1812L22.3476 48.1812Z" fill="white"/>
</g>
<mask id="mask13_1659_3414" style="mask-type:luminance" maskUnits="userSpaceOnUse" x="-25" y="-22" width="244" height="103">
<path d="M218.59 -21.5625L-24.2349 -21.5625L-24.2349 80.625L218.59 80.625L218.59 -21.5625Z" fill="white"/>
</mask>
<g mask="url(#mask13_1659_3414)">
<path d="M24.7545 52.2418L27.4875 52.2418L24.5098 47.7625L25.3256 47.2183L27.5283 50.6092L28.4256 47.2601L29.4454 47.5532L28.4664 50.9441L27.8954 51.1534L28.5888 52.2L29.0783 52.5767L28.8743 53.1628L24.6321 53.1628L24.7545 52.2418Z" fill="white"/>
</g>
<mask id="mask14_1659_3414" style="mask-type:luminance" maskUnits="userSpaceOnUse" x="-25" y="-22" width="244" height="103">
<path d="M218.59 -21.5625L-24.2349 -21.5625L-24.2349 80.625L218.59 80.625L218.59 -21.5625Z" fill="white"/>
</mask>
<g mask="url(#mask14_1659_3414)">
<path d="M34.4623 48.1812L30.4648 48.1812L30.5872 47.2603L35.4413 47.2603L35.5636 47.9719L34.0952 53.1629L33.0754 53.1629L34.4623 48.1812ZM30.628 49.9395L31.6478 49.8139L31.6478 55.0049L30.628 55.1305L30.628 49.9395Z" fill="white"/>
</g>
<mask id="mask15_1659_3414" style="mask-type:luminance" maskUnits="userSpaceOnUse" x="-25" y="-22" width="244" height="103">
<path d="M218.59 -21.5625L-24.2349 -21.5625L-24.2349 80.625L218.59 80.625L218.59 -21.5625Z" fill="white"/>
</mask>
<g mask="url(#mask15_1659_3414)">
<path d="M37.1546 48.6419L37.644 48.2232L36.5835 48.2232L36.7059 47.3022L40.8257 47.3022C41.152 47.3022 41.4375 47.5953 41.4375 47.9302L41.4375 52.4095L41.2336 53.1631L38.6638 53.1631L38.7454 52.2421L40.4994 52.2421L40.4994 48.1814L38.1743 48.1814L37.7256 53.1631L36.7467 53.1631L37.1546 48.6419Z" fill="white"/>
</g>
<mask id="mask16_1659_3414" style="mask-type:luminance" maskUnits="userSpaceOnUse" x="-25" y="-22" width="244" height="103">
<path d="M218.59 -21.5625L-24.2349 -21.5625L-24.2349 80.625L218.59 80.625L218.59 -21.5625Z" fill="white"/>
</mask>
<g mask="url(#mask16_1659_3414)">
<path d="M48.8613 48.1812L45.231 48.1812L45.3533 47.2603L49.5547 47.2603C49.7587 47.2603 49.9218 47.4277 49.9218 47.637L49.9218 53.1211L48.9021 53.1211L48.9021 48.1812L48.8613 48.1812ZM45.3533 49.9813L46.3323 49.8558L46.2915 53.1629L45.3125 53.1629L45.3533 49.9813Z" fill="white"/>
</g>
<mask id="mask17_1659_3414" style="mask-type:luminance" maskUnits="userSpaceOnUse" x="-25" y="-22" width="244" height="103">
<path d="M218.59 -21.5625L-24.2349 -21.5625L-24.2349 80.625L218.59 80.625L218.59 -21.5625Z" fill="white"/>
</mask>
<g mask="url(#mask17_1659_3414)">
<path d="M54.1235 48.1812L51.0234 48.1812L51.1458 47.2603L54.7761 47.2603C54.9801 47.2603 55.1433 47.4277 55.1433 47.637L55.1433 53.1211L54.1235 53.1211L54.1235 48.1812Z" fill="white"/>
</g>
<mask id="mask18_1659_3414" style="mask-type:luminance" maskUnits="userSpaceOnUse" x="-25" y="-22" width="244" height="103">
<path d="M218.59 -21.5625L-24.2349 -21.5625L-24.2349 80.625L218.59 80.625L218.59 -21.5625Z" fill="white"/>
</mask>
<g mask="url(#mask18_1659_3414)">
<path d="M56.5708 48.0137L56.734 47.2601L57.4274 47.2601L57.9985 52.1162C58.5287 52.0744 59.5485 51.6976 59.9972 51.4046L60.5275 48.1392L58.6511 48.1392L58.7735 47.2183L61.4248 47.2183L61.5472 47.9718L60.8946 51.8232C60.2419 52.4511 59.059 52.9535 57.5906 53.1628L57.2234 53.1628L56.5708 48.0137Z" fill="white"/>
</g>
<mask id="mask19_1659_3414" style="mask-type:luminance" maskUnits="userSpaceOnUse" x="-25" y="-22" width="244" height="103">
<path d="M218.59 -21.5625L-24.2349 -21.5625L-24.2349 80.625L218.59 80.625L218.59 -21.5625Z" fill="white"/>
</mask>
<g mask="url(#mask19_1659_3414)">
<path d="M62.5669 48.0139L62.7708 47.3022L67.4617 47.3022L67.5841 48.0558L66.8907 51.9072C66.3196 52.4933 65.0959 53.0375 63.7498 53.2887L63.3419 53.2887L62.5669 48.0139ZM66.0749 51.3211L66.6051 48.1814L63.5867 48.1814L64.1169 52.1165C64.8104 52.0328 65.6262 51.7397 66.0749 51.3211Z" fill="white"/>
</g>
<mask id="mask20_1659_3414" style="mask-type:luminance" maskUnits="userSpaceOnUse" x="-25" y="-22" width="244" height="103">
<path d="M218.59 -21.5625L-24.2349 -21.5625L-24.2349 80.625L218.59 80.625L218.59 -21.5625Z" fill="white"/>
</mask>
<g mask="url(#mask20_1659_3414)">
<path d="M72.7235 48.1812L68.7261 48.1812L68.8484 47.2603L73.7025 47.2603L73.8249 47.9719L72.3564 53.1629L71.3367 53.1629L72.7235 48.1812ZM68.8892 49.9395L69.909 49.8139L69.909 55.0049L68.8892 55.1305L68.8892 49.9395Z" fill="white"/>
</g>
<mask id="mask21_1659_3414" style="mask-type:luminance" maskUnits="userSpaceOnUse" x="-25" y="-22" width="244" height="103">
<path d="M218.59 -21.5625L-24.2349 -21.5625L-24.2349 80.625L218.59 80.625L218.59 -21.5625Z" fill="white"/>
</mask>
<g mask="url(#mask21_1659_3414)">
<path d="M74.9674 49.6043L75.6608 49.0601L74.8042 47.8879L75.5792 47.1763L78.1082 50.609L78.8832 47.26L79.903 47.4693L79.0464 50.9439L78.4753 51.1114L79.2911 52.1998L79.7806 52.6185L79.6175 53.1627L78.7201 53.1627L75.9871 49.4787L75.9871 53.1627L74.9674 53.1627L74.9674 49.6043Z" fill="white"/>
</g>
<mask id="mask22_1659_3414" style="mask-type:luminance" maskUnits="userSpaceOnUse" x="-25" y="-22" width="244" height="103">
<path d="M218.59 -21.5625L-24.2349 -21.5625L-24.2349 80.625L218.59 80.625L218.59 -21.5625Z" fill="white"/>
</mask>
<g mask="url(#mask22_1659_3414)">
<path d="M87.082 48.1812L83.4517 48.1812L83.574 47.2603L87.7754 47.2603C87.9794 47.2603 88.1425 47.4277 88.1425 47.637L88.1425 53.1211L87.1228 53.1211L87.1228 48.1812L87.082 48.1812ZM83.574 49.9813L84.553 49.8558L84.5122 53.1629L83.5332 53.1629L83.574 49.9813Z" fill="white"/>
</g>
<mask id="mask23_1659_3414" style="mask-type:luminance" maskUnits="userSpaceOnUse" x="-25" y="-22" width="244" height="103">
<path d="M218.59 -21.5625L-24.2349 -21.5625L-24.2349 80.625L218.59 80.625L218.59 -21.5625Z" fill="white"/>
</mask>
<g mask="url(#mask23_1659_3414)">
<path d="M92.3437 48.1812L89.2437 48.1812L89.366 47.2603L92.9964 47.2603C93.2003 47.2603 93.3635 47.4277 93.3635 47.637L93.3635 53.1211L92.3437 53.1211L92.3437 48.1812Z" fill="white"/>
</g>
<mask id="mask24_1659_3414" style="mask-type:luminance" maskUnits="userSpaceOnUse" x="-25" y="-22" width="244" height="103">
<path d="M218.59 -21.5625L-24.2349 -21.5625L-24.2349 80.625L218.59 80.625L218.59 -21.5625Z" fill="white"/>
</mask>
<g mask="url(#mask24_1659_3414)">
<path d="M94.71 48.0976L94.8323 47.3022L95.5258 47.3022L95.9745 50.6094L97.1982 47.3022L98.014 47.3022L98.014 48.1814L96.6679 50.9443L96.0152 50.7769L96.2192 52.1584C97.4021 51.9072 98.4627 51.4467 99.0745 50.9025L99.4416 47.3022L100.257 47.3022L100.339 48.0558L99.9719 51.363C99.1969 52.2421 97.5245 53.0375 95.9337 53.2468L95.4442 53.2468L94.71 48.0976Z" fill="white"/>
</g>
<mask id="mask25_1659_3414" style="mask-type:luminance" maskUnits="userSpaceOnUse" x="-25" y="-22" width="244" height="103">
<path d="M218.59 -21.5625L-24.2349 -21.5625L-24.2349 80.625L218.59 80.625L218.59 -21.5625Z" fill="white"/>
</mask>
<g mask="url(#mask25_1659_3414)">
<path d="M101.236 52.242L104.499 52.242L104.499 48.1812L101.359 48.1812L101.481 47.2603L104.989 47.2603C105.274 47.2603 105.478 47.5114 105.478 47.8045L105.478 52.3257L105.274 53.1211L101.114 53.1211L101.236 52.242Z" fill="white"/>
</g>
<mask id="mask26_1659_3414" style="mask-type:luminance" maskUnits="userSpaceOnUse" x="-25" y="-22" width="244" height="103">
<path d="M218.59 -21.5625L-24.2349 -21.5625L-24.2349 80.625L218.59 80.625L218.59 -21.5625Z" fill="white"/>
</mask>
<g mask="url(#mask26_1659_3414)">
<path d="M110.496 48.1812L106.865 48.1812L106.988 47.2603L111.189 47.2603C111.393 47.2603 111.556 47.4277 111.556 47.637L111.556 53.1211L110.536 53.1211L110.536 48.1812L110.496 48.1812ZM106.988 49.9813L107.967 49.8558L107.926 53.1629L106.947 53.1629L106.988 49.9813Z" fill="white"/>
</g>
</g>
<defs>
<clipPath id="clip0_1659_3414">
<rect width="193.266" height="60" fill="white" transform="translate(0.0839844)"/>
</clipPath>
</defs>
</svg>
