<svg width="351" height="108" viewBox="0 0 351 108" fill="none" xmlns="http://www.w3.org/2000/svg">
<mask id="mask0_249_15674" style="mask-type:luminance" maskUnits="userSpaceOnUse" x="0" y="-18" width="351" height="144">
<path d="M350.997 -17.8132H0V125.813H350.997V-17.8132Z" fill="white"/>
</mask>
<g mask="url(#mask0_249_15674)">
<path d="M308.899 88.3327C308.899 88.7446 308.545 89.0976 308.133 89.0976H211.141C210.728 89.0976 210.375 88.7446 210.375 88.3327V75.2116C210.375 74.7997 210.728 74.4467 211.141 74.4467H308.133C308.545 74.4467 308.899 74.7997 308.899 75.2116V88.3327Z" fill="#2A2862"/>
</g>
<mask id="mask1_249_15674" style="mask-type:luminance" maskUnits="userSpaceOnUse" x="0" y="-18" width="351" height="144">
<path d="M350.997 -17.8132H0V125.813H350.997V-17.8132Z" fill="white"/>
</mask>
<g mask="url(#mask1_249_15674)">
<path d="M295.869 69.4453C295.869 69.8571 295.515 70.2102 295.102 70.2102H229.242C228.829 70.2102 228.476 69.8571 228.476 69.4453V56.3241C228.476 55.9122 228.829 55.5592 229.242 55.5592H295.102C295.515 55.5592 295.869 55.9122 295.869 56.3241V69.4453Z" fill="#CE2027"/>
</g>
<mask id="mask2_249_15674" style="mask-type:luminance" maskUnits="userSpaceOnUse" x="0" y="-18" width="351" height="144">
<path d="M350.997 -17.8132H0V125.813H350.997V-17.8132Z" fill="white"/>
</mask>
<g mask="url(#mask2_249_15674)">
<path d="M304.005 49.3813C304.005 49.9108 303.534 50.3815 303.003 50.3815H219.396C218.865 50.3815 218.393 49.9108 218.393 49.3813V36.6132C218.393 36.0836 218.865 35.6129 219.396 35.6129H303.003C303.534 35.6129 304.005 36.0836 304.005 36.6132V49.3813Z" fill="#43BBCE"/>
</g>
<mask id="mask3_249_15674" style="mask-type:luminance" maskUnits="userSpaceOnUse" x="0" y="-18" width="351" height="144">
<path d="M350.997 -17.8132H0V125.813H350.997V-17.8132Z" fill="white"/>
</mask>
<g mask="url(#mask3_249_15674)">
<path d="M281.659 29.7878C281.659 30.1997 281.305 30.5527 280.892 30.5527H229.183C228.77 30.5527 228.417 30.1997 228.417 29.7878V16.6078C228.417 16.1959 228.77 15.8429 229.183 15.8429H280.892C281.305 15.8429 281.659 16.1959 281.659 16.6078V29.7878Z" fill="#B2CC53"/>
</g>
<mask id="mask4_249_15674" style="mask-type:luminance" maskUnits="userSpaceOnUse" x="0" y="-18" width="351" height="144">
<path d="M350.997 -17.8132H0V125.813H350.997V-17.8132Z" fill="white"/>
</mask>
<g mask="url(#mask4_249_15674)">
<path d="M44.5162 61.0313H48.6435V47.3218L51.8864 44.8506H44.9879L46.344 36.0835H74.2328C76.4733 36.0835 78.3601 37.9664 78.3601 40.2611V69.8572H68.5725V44.8506H58.4901V69.8572H43.2191L44.5162 61.0313Z" fill="#43BBCE"/>
</g>
<mask id="mask5_249_15674" style="mask-type:luminance" maskUnits="userSpaceOnUse" x="0" y="-18" width="351" height="144">
<path d="M350.997 -17.8132H0V125.813H350.997V-17.8132Z" fill="white"/>
</mask>
<g mask="url(#mask5_249_15674)">
<path d="M88.9737 44.9094H83.1365L84.3747 36.0835H94.9288C97.0514 36.0835 98.8792 37.9075 98.8792 40.0846V69.8572H89.0326V44.9094H88.9737Z" fill="#43BBCE"/>
</g>
<mask id="mask6_249_15674" style="mask-type:luminance" maskUnits="userSpaceOnUse" x="0" y="-18" width="351" height="144">
<path d="M350.997 -17.8132H0V125.813H350.997V-17.8132Z" fill="white"/>
</mask>
<g mask="url(#mask6_249_15674)">
<path d="M114.386 62.4435L110.789 69.8572H103.301L102.829 61.2079L113.737 58.4424L112.794 44.9094H105.895L106.957 36.0835H118.926C121.284 36.0835 122.463 37.731 122.64 39.9081L123.643 57.9129L125.529 68.3274L115.978 70.3868L114.386 62.4435Z" fill="#43BBCE"/>
</g>
<mask id="mask7_249_15674" style="mask-type:luminance" maskUnits="userSpaceOnUse" x="0" y="-18" width="351" height="144">
<path d="M350.997 -17.8132H0V125.813H350.997V-17.8132Z" fill="white"/>
</mask>
<g mask="url(#mask7_249_15674)">
<path d="M128.891 42.5558L130.954 36.0246H160.612L161.673 42.3793L157.958 61.3255C154.008 65.5619 145.636 68.9157 135.671 70.1514H134.138L128.891 42.5558ZM149.527 56.7949L151.532 44.9093H138.914L141.567 59.7957C144.81 59.3838 147.581 58.2658 149.527 56.7949Z" fill="#43BBCE"/>
</g>
<mask id="mask8_249_15674" style="mask-type:luminance" maskUnits="userSpaceOnUse" x="0" y="-18" width="351" height="144">
<path d="M350.997 -17.8132H0V125.813H350.997V-17.8132Z" fill="white"/>
</mask>
<g mask="url(#mask8_249_15674)">
<path d="M168.395 61.0313H187.911V44.9094H178.713V54.6179L169.338 55.9712V44.9094H165.8L167.038 36.0835H193.512C195.812 36.0835 197.639 38.0252 197.639 40.2611V63.2672L195.576 69.9161H167.097L168.395 61.0313Z" fill="#43BBCE"/>
</g>
<mask id="mask9_249_15674" style="mask-type:luminance" maskUnits="userSpaceOnUse" x="0" y="-18" width="351" height="144">
<path d="M350.997 -17.8132H0V125.813H350.997V-17.8132Z" fill="white"/>
</mask>
<g mask="url(#mask9_249_15674)">
<path d="M43.6902 85.9202H44.8695V80.86L45.577 80.2716H43.9261L44.103 78.9771H50.8835C51.1194 78.9771 51.4142 79.2125 51.4142 79.5067V87.2146H49.9402V80.2128H46.3435V87.2146H43.5134L43.6902 85.9202Z" fill="#2A2862"/>
</g>
<mask id="mask10_249_15674" style="mask-type:luminance" maskUnits="userSpaceOnUse" x="0" y="-18" width="351" height="144">
<path d="M350.997 -17.8132H0V125.813H350.997V-17.8132Z" fill="white"/>
</mask>
<g mask="url(#mask10_249_15674)">
<path d="M54.7167 80.2127H52.9479L53.1248 78.9183H55.6601C55.8959 78.9183 56.1318 79.1536 56.1318 79.389V83.2724L54.6578 83.5666V80.2127H54.7167Z" fill="#2A2862"/>
</g>
<mask id="mask11_249_15674" style="mask-type:luminance" maskUnits="userSpaceOnUse" x="0" y="-18" width="351" height="144">
<path d="M350.997 -17.8132H0V125.813H350.997V-17.8132Z" fill="white"/>
</mask>
<g mask="url(#mask11_249_15674)">
<path d="M57.8414 86.9792C58.7848 86.6262 60.023 86.0966 60.3178 85.9201L59.4924 85.6848L57.7825 80.2716L57.9594 78.9771H58.9617L61.0253 85.5082C61.7918 85.0964 62.3815 84.7433 62.5583 84.4491L63.2069 78.9183H64.5041L64.563 79.9185L63.9734 84.9787C62.8532 86.0966 60.5537 87.3911 58.3721 88.2148L57.8414 86.9792Z" fill="#2A2862"/>
</g>
<mask id="mask12_249_15674" style="mask-type:luminance" maskUnits="userSpaceOnUse" x="0" y="-18" width="351" height="144">
<path d="M350.997 -17.8132H0V125.813H350.997V-17.8132Z" fill="white"/>
</mask>
<g mask="url(#mask12_249_15674)">
<path d="M67.3341 80.2127H66.037L66.2139 78.9183H68.2775C68.5134 78.9183 68.7492 79.1536 68.7492 79.389V87.1557H67.2752V80.2127H67.3341Z" fill="#2A2862"/>
</g>
<mask id="mask13_249_15674" style="mask-type:luminance" maskUnits="userSpaceOnUse" x="0" y="-18" width="351" height="144">
<path d="M350.997 -17.8132H0V125.813H350.997V-17.8132Z" fill="white"/>
</mask>
<g mask="url(#mask13_249_15674)">
<path d="M70.8129 85.9202H74.7633L70.4591 79.6245L71.6383 78.8595L74.8223 83.6255L76.1194 78.9184L77.5934 79.3303L76.1784 84.0962L75.3529 84.3904L76.3552 85.8614L77.0628 86.391L76.768 87.2147H70.636L70.8129 85.9202Z" fill="#2A2862"/>
</g>
<mask id="mask14_249_15674" style="mask-type:luminance" maskUnits="userSpaceOnUse" x="0" y="-18" width="351" height="144">
<path d="M350.997 -17.8132H0V125.813H350.997V-17.8132Z" fill="white"/>
</mask>
<g mask="url(#mask14_249_15674)">
<path d="M84.846 80.2127H79.0677L79.2446 78.9183H86.261L86.4379 79.9185L84.3153 87.2146H82.8413L84.846 80.2127ZM79.3036 82.684L80.7776 82.5074V89.8035L79.3036 89.98V82.684Z" fill="#2A2862"/>
</g>
<mask id="mask15_249_15674" style="mask-type:luminance" maskUnits="userSpaceOnUse" x="0" y="-18" width="351" height="144">
<path d="M350.997 -17.8132H0V125.813H350.997V-17.8132Z" fill="white"/>
</mask>
<g mask="url(#mask15_249_15674)">
<path d="M88.7375 80.86L89.445 80.2716H87.912L88.0889 78.9771H94.044C94.5157 78.9771 94.9285 79.389 94.9285 79.8597V86.1555L94.6336 87.2146H90.9191L91.037 85.9202H93.5723V80.2128H90.2115L89.563 87.2146H88.1479L88.7375 80.86Z" fill="#2A2862"/>
</g>
<mask id="mask16_249_15674" style="mask-type:luminance" maskUnits="userSpaceOnUse" x="0" y="-18" width="351" height="144">
<path d="M350.997 -17.8132H0V125.813H350.997V-17.8132Z" fill="white"/>
</mask>
<g mask="url(#mask16_249_15674)">
<path d="M105.659 80.2127H100.411L100.588 78.9183H106.661C106.956 78.9183 107.192 79.1536 107.192 79.4478V87.1557H105.718V80.2127H105.659ZM100.588 82.7428L102.003 82.5663L101.944 87.2146H100.529L100.588 82.7428Z" fill="#2A2862"/>
</g>
<mask id="mask17_249_15674" style="mask-type:luminance" maskUnits="userSpaceOnUse" x="0" y="-18" width="351" height="144">
<path d="M350.997 -17.8132H0V125.813H350.997V-17.8132Z" fill="white"/>
</mask>
<g mask="url(#mask17_249_15674)">
<path d="M113.265 80.2127H108.784L108.961 78.9183H114.209C114.503 78.9183 114.739 79.1536 114.739 79.4478V87.1557H113.265V80.2127Z" fill="#2A2862"/>
</g>
<mask id="mask18_249_15674" style="mask-type:luminance" maskUnits="userSpaceOnUse" x="0" y="-18" width="351" height="144">
<path d="M350.997 -17.8132H0V125.813H350.997V-17.8132Z" fill="white"/>
</mask>
<g mask="url(#mask18_249_15674)">
<path d="M116.803 79.9775L117.039 78.9184H118.041L118.867 85.7437C119.633 85.6849 121.107 85.1553 121.756 84.7435L122.522 80.154H119.81L119.987 78.8595H123.819L123.996 79.9187L123.053 85.3319C122.109 86.2144 120.4 86.9205 118.277 87.2147H117.746L116.803 79.9775Z" fill="#2A2862"/>
</g>
<mask id="mask19_249_15674" style="mask-type:luminance" maskUnits="userSpaceOnUse" x="0" y="-18" width="351" height="144">
<path d="M350.997 -17.8132H0V125.813H350.997V-17.8132Z" fill="white"/>
</mask>
<g mask="url(#mask19_249_15674)">
<path d="M125.47 79.9774L125.765 78.9771H132.546L132.723 80.0363L131.72 85.4495C130.895 86.2732 129.126 87.0381 127.18 87.3912H126.591L125.47 79.9774ZM130.541 84.6257L131.307 80.2128H126.944L127.711 85.7437C128.713 85.626 129.892 85.2141 130.541 84.6257Z" fill="#2A2862"/>
</g>
<mask id="mask20_249_15674" style="mask-type:luminance" maskUnits="userSpaceOnUse" x="0" y="-18" width="351" height="144">
<path d="M350.997 -17.8132H0V125.813H350.997V-17.8132Z" fill="white"/>
</mask>
<g mask="url(#mask20_249_15674)">
<path d="M140.151 80.2127H134.373L134.55 78.9183H141.567L141.743 79.9185L139.621 87.2146H138.147L140.151 80.2127ZM134.609 82.684L136.083 82.5074V89.8035L134.609 89.98V82.684Z" fill="#2A2862"/>
</g>
<mask id="mask21_249_15674" style="mask-type:luminance" maskUnits="userSpaceOnUse" x="0" y="-18" width="351" height="144">
<path d="M350.997 -17.8132H0V125.813H350.997V-17.8132Z" fill="white"/>
</mask>
<g mask="url(#mask21_249_15674)">
<path d="M143.395 82.2133L144.397 81.4484L143.159 79.8009L144.279 78.8006L147.935 83.6255L149.055 78.9183L150.529 79.2125L149.291 84.0962L148.465 84.3315L149.645 85.8613L150.352 86.4497L150.116 87.2147H148.819L144.869 82.0368V87.2147H143.395V82.2133Z" fill="#2A2862"/>
</g>
<mask id="mask22_249_15674" style="mask-type:luminance" maskUnits="userSpaceOnUse" x="0" y="-18" width="351" height="144">
<path d="M350.997 -17.8132H0V125.813H350.997V-17.8132Z" fill="white"/>
</mask>
<g mask="url(#mask22_249_15674)">
<path d="M160.906 80.2127H155.659L155.836 78.9183H161.909C162.204 78.9183 162.439 79.1536 162.439 79.4478V87.1557H160.965V80.2127H160.906ZM155.836 82.7428L157.251 82.5663L157.192 87.2146H155.777L155.836 82.7428Z" fill="#2A2862"/>
</g>
<mask id="mask23_249_15674" style="mask-type:luminance" maskUnits="userSpaceOnUse" x="0" y="-18" width="351" height="144">
<path d="M350.997 -17.8132H0V125.813H350.997V-17.8132Z" fill="white"/>
</mask>
<g mask="url(#mask23_249_15674)">
<path d="M168.512 80.2127H164.031L164.208 78.9183H169.456C169.75 78.9183 169.986 79.1536 169.986 79.4478V87.1557H168.512V80.2127Z" fill="#2A2862"/>
</g>
<mask id="mask24_249_15674" style="mask-type:luminance" maskUnits="userSpaceOnUse" x="0" y="-18" width="351" height="144">
<path d="M350.997 -17.8132H0V125.813H350.997V-17.8132Z" fill="white"/>
</mask>
<g mask="url(#mask24_249_15674)">
<path d="M171.932 80.0951L172.109 78.9771H173.111L173.76 83.6254L175.529 78.9771H176.708V80.2128L174.762 84.0962L173.819 83.8608L174.114 85.8025C175.824 85.4495 177.357 84.8022 178.241 84.0373L178.772 78.9771H179.951L180.069 80.0363L179.538 84.6846C178.418 85.9202 176.001 87.0381 173.701 87.3323H172.994L171.932 80.0951Z" fill="#2A2862"/>
</g>
<mask id="mask25_249_15674" style="mask-type:luminance" maskUnits="userSpaceOnUse" x="0" y="-18" width="351" height="144">
<path d="M350.997 -17.8132H0V125.813H350.997V-17.8132Z" fill="white"/>
</mask>
<g mask="url(#mask25_249_15674)">
<path d="M181.366 85.9201H186.083V80.2127H181.543L181.72 78.9183H186.79C187.203 78.9183 187.498 79.2713 187.498 79.6832V86.0378L187.203 87.1557H181.189L181.366 85.9201Z" fill="#2A2862"/>
</g>
<mask id="mask26_249_15674" style="mask-type:luminance" maskUnits="userSpaceOnUse" x="0" y="-18" width="351" height="144">
<path d="M350.998 -17.8132H0.00115967V125.813H350.998V-17.8132Z" fill="white"/>
</mask>
<g mask="url(#mask26_249_15674)">
<path d="M194.75 80.2127H189.503L189.68 78.9183H195.753C196.048 78.9183 196.283 79.1536 196.283 79.4478V87.1557H194.809V80.2127H194.75ZM189.68 82.7428L191.095 82.5663L191.036 87.2146H189.621L189.68 82.7428Z" fill="#2A2862"/>
</g>
</svg>
