<svg width="20" height="19" viewBox="0 0 20 19" fill="none" xmlns="http://www.w3.org/2000/svg">
<path d="M0 3.25C0 1.88281 1.09375 0.75 2.5 0.75H17.5C18.8672 0.75 20 1.88281 20 3.25V15.75C20 17.1562 18.8672 18.25 17.5 18.25H2.5C1.09375 18.25 0 17.1562 0 15.75V3.25ZM10.625 8.875H18.75V3.25C18.75 2.58594 18.1641 2 17.5 2H10.625V8.875ZM9.375 2H2.5C1.79688 2 1.25 2.58594 1.25 3.25V8.875H9.375V2ZM1.25 10.125V15.75C1.25 16.4531 1.79688 17 2.5 17H9.375V10.125H1.25ZM10.625 17H17.5C18.1641 17 18.75 16.4531 18.75 15.75V10.125H10.625V17Z" fill="white"/>
</svg>
