<svg width="18" height="21" viewBox="0 0 18 21" fill="none" xmlns="http://www.w3.org/2000/svg">
<path d="M4.875 0.5C5.1875 0.5 5.5 0.8125 5.5 1.125V3H13V1.125C13 0.8125 13.2734 0.5 13.625 0.5C13.9375 0.5 14.25 0.8125 14.25 1.125V3H15.5C16.8672 3 18 4.13281 18 5.5V18C18 19.4062 16.8672 20.5 15.5 20.5H3C1.59375 20.5 0.5 19.4062 0.5 18V5.5C0.5 4.13281 1.59375 3 3 3H4.25V1.125C4.25 0.8125 4.52344 0.5 4.875 0.5ZM16.75 8H1.75V18C1.75 18.7031 2.29688 19.25 3 19.25H15.5C16.1641 19.25 16.75 18.7031 16.75 18V8ZM15.5 4.25H3C2.29688 4.25 1.75 4.83594 1.75 5.5V6.75H16.75V5.5C16.75 4.83594 16.1641 4.25 15.5 4.25Z" fill="white"/>
</svg>
