<svg width="12" height="13" viewBox="0 0 12 13" fill="none" xmlns="http://www.w3.org/2000/svg">
<path d="M5.625 8.75V6.875H3.75C3.53906 6.875 3.375 6.71094 3.375 6.5C3.375 6.3125 3.53906 6.125 3.75 6.125H5.625V4.25C5.625 4.0625 5.78906 3.875 6 3.875C6.1875 3.875 6.375 4.0625 6.375 4.25V6.125H8.25C8.4375 6.125 8.625 6.3125 8.625 6.5C8.625 6.71094 8.4375 6.875 8.25 6.875H6.375V8.75C6.375 8.96094 6.1875 9.125 6 9.125C5.78906 9.125 5.625 8.96094 5.625 8.75ZM12 6.5C12 9.82812 9.30469 12.5 6 12.5C2.67188 12.5 0 9.82812 0 6.5C0 3.19531 2.67188 0.5 6 0.5C9.30469 0.5 12 3.19531 12 6.5ZM6 1.25C3.09375 1.25 0.75 3.61719 0.75 6.5C0.75 9.40625 3.09375 11.75 6 11.75C8.88281 11.75 11.25 9.40625 11.25 6.5C11.25 3.61719 8.88281 1.25 6 1.25Z" fill="#393939"/>
</svg>
