<svg width="18" height="19" viewBox="0 0 18 19" fill="none" xmlns="http://www.w3.org/2000/svg">
<path d="M9.875 0.75C10.8906 0.75 11.75 1.60938 11.75 2.625V16.375C11.75 17.4297 10.8906 18.25 9.875 18.25H8.625C7.57031 18.25 6.75 17.4297 6.75 16.375V2.625C6.75 1.60938 7.57031 0.75 8.625 0.75H9.875ZM9.875 2H8.625C8.27344 2 8 2.3125 8 2.625V16.375C8 16.7266 8.27344 17 8.625 17H9.875C10.1875 17 10.5 16.7266 10.5 16.375V2.625C10.5 2.3125 10.1875 2 9.875 2ZM3.625 8.25C4.64062 8.25 5.5 9.10938 5.5 10.125V16.375C5.5 17.4297 4.64062 18.25 3.625 18.25H2.375C1.32031 18.25 0.5 17.4297 0.5 16.375V10.125C0.5 9.10938 1.32031 8.25 2.375 8.25H3.625ZM3.625 9.5H2.375C2.02344 9.5 1.75 9.8125 1.75 10.125V16.375C1.75 16.7266 2.02344 17 2.375 17H3.625C3.9375 17 4.25 16.7266 4.25 16.375V10.125C4.25 9.8125 3.9375 9.5 3.625 9.5ZM13 5.125C13 4.10938 13.8203 3.25 14.875 3.25H16.125C17.1406 3.25 18 4.10938 18 5.125V16.375C18 17.4297 17.1406 18.25 16.125 18.25H14.875C13.8203 18.25 13 17.4297 13 16.375V5.125ZM14.25 5.125V16.375C14.25 16.7266 14.5234 17 14.875 17H16.125C16.4375 17 16.75 16.7266 16.75 16.375V5.125C16.75 4.8125 16.4375 4.5 16.125 4.5H14.875C14.5234 4.5 14.25 4.8125 14.25 5.125Z" fill="white"/>
</svg>
