<svg width="30" height="35" viewBox="0 0 30 35" fill="none" xmlns="http://www.w3.org/2000/svg">
<rect y="0.5" width="30" height="34" rx="5" fill="#F6F7F9"/>
<path d="M23.125 10.5C23.4375 10.5 23.75 10.8125 23.75 11.125C23.75 11.4766 23.4375 11.75 23.125 11.75H22.3828L21.4062 25.6953C21.2891 27.0234 20.1953 28 18.9062 28H11.0547C9.76562 28 8.67188 27.0234 8.55469 25.6953L7.57812 11.75H6.875C6.52344 11.75 6.25 11.4766 6.25 11.125C6.25 10.8125 6.52344 10.5 6.875 10.5H10.5859L11.6016 8.89844C11.9141 8.35156 12.5391 8 13.1641 8H16.7969C17.4219 8 18.0469 8.35156 18.3594 8.89844L19.375 10.5H23.125ZM13.1641 9.25C12.9688 9.25 12.7734 9.36719 12.6562 9.5625L12.0312 10.5H17.9297L17.3047 9.5625C17.1875 9.36719 16.9922 9.25 16.7969 9.25H13.1641ZM21.1328 11.75H8.82812L9.80469 25.6172C9.84375 26.2422 10.3906 26.75 11.0547 26.75H18.9062C19.5703 26.75 20.1172 26.2422 20.1562 25.6172L21.1328 11.75Z" fill="#112B83"/>
</svg>
