<svg width="32" height="33" viewBox="0 0 32 33" fill="none" xmlns="http://www.w3.org/2000/svg">
<rect y="0.5" width="32" height="32" rx="5" fill="#F6F7F9"/>
<path d="M21.0781 6.89844C22.0547 5.92188 23.6562 5.92188 24.6328 6.89844L25.1016 7.36719C26.0781 8.34375 26.0781 9.94531 25.1016 10.9219L16.5078 19.5156C16.1562 19.8672 15.7266 20.0625 15.2969 20.1797L11.7422 21C11.5469 21.0391 11.3125 21 11.1562 20.8438C11 20.6875 10.9609 20.4531 11 20.2578L11.8203 16.7031C11.9375 16.2734 12.1328 15.8438 12.4844 15.4922L21.0781 6.89844ZM23.7344 7.79688C23.2656 7.28906 22.4453 7.28906 21.9766 7.79688L20.9219 8.8125L23.1875 11.0781L24.2031 10.0234C24.7109 9.55469 24.7109 8.73438 24.2031 8.26562L23.7344 7.79688ZM13.0312 16.9766L12.4453 19.5547L14.9844 18.9688C15.2188 18.9297 15.4531 18.8125 15.6094 18.6172L22.2891 11.9375L20.0625 9.71094L13.3828 16.3906C13.1875 16.5469 13.0703 16.7812 13.0312 16.9766ZM14.125 8.5C14.4375 8.5 14.75 8.8125 14.75 9.125C14.75 9.47656 14.4375 9.75 14.125 9.75H9.125C8.07031 9.75 7.25 10.6094 7.25 11.625V22.875C7.25 23.9297 8.07031 24.75 9.125 24.75H20.375C21.3906 24.75 22.25 23.9297 22.25 22.875V17.875C22.25 17.5625 22.5234 17.25 22.875 17.25C23.1875 17.25 23.5 17.5625 23.5 17.875V22.875C23.5 24.6328 22.0938 26 20.375 26H9.125C7.36719 26 6 24.6328 6 22.875V11.625C6 9.90625 7.36719 8.5 9.125 8.5H14.125Z" fill="#112B83"/>
</svg>
