<svg width="27" height="26" viewBox="0 0 27 26" fill="none" xmlns="http://www.w3.org/2000/svg">
<path d="M20.3086 18.9844C20.5 19.1211 20.5547 19.3945 20.3906 19.5859C20.2539 19.7773 19.9805 19.8047 19.7891 19.668L3.16406 6.54297C2.97266 6.40625 2.91797 6.13281 3.08203 5.94141C3.21875 5.75 3.49219 5.69531 3.68359 5.85938L20.3086 18.9844ZM19.543 13.1055C19.2695 13.7617 18.7773 14.6641 18.0664 15.5391L17.3828 14.9922C18.0391 14.1719 18.4766 13.3789 18.75 12.75C18.3672 11.875 17.5742 10.5625 16.3984 9.46875C15.2227 8.375 13.6641 7.5 11.75 7.5C10.6562 7.5 9.67188 7.80078 8.82422 8.23828L8.08594 7.63672C9.125 7.03516 10.3281 6.625 11.75 6.625C13.9375 6.625 15.7148 7.63672 17 8.83984C18.2852 10.0156 19.1328 11.4375 19.543 12.4219C19.625 12.6406 19.625 12.8867 19.543 13.1055ZM5.40625 9.98828L6.08984 10.5352C5.43359 11.3281 4.99609 12.1484 4.72266 12.75C5.10547 13.625 5.89844 14.9375 7.07422 16.0312C8.25 17.125 9.80859 18 11.7227 18C12.8164 18 13.8008 17.7266 14.6484 17.2891L15.3867 17.8906C14.3477 18.4922 13.1445 18.875 11.7227 18.875C9.53516 18.875 7.75781 17.8906 6.47266 16.6875C5.1875 15.4844 4.33984 14.0625 3.92969 13.1055C3.84766 12.8867 3.84766 12.6406 3.92969 12.4219C4.20312 11.7656 4.69531 10.8633 5.40625 9.98828ZM8.22266 12.75C8.22266 12.5859 8.25 12.4219 8.27734 12.2578L9.125 12.9141C9.20703 14.3086 10.3281 15.375 11.7227 15.375C11.8867 15.375 12.0508 15.375 12.1875 15.3477L13.0352 16.0039C12.625 16.168 12.1875 16.25 11.7227 16.25C9.80859 16.25 8.22266 14.6914 8.22266 12.75ZM15.25 12.75C15.25 12.9414 15.2227 13.1055 15.1953 13.2695L14.3477 12.6133C14.2656 11.2188 13.1445 10.125 11.7227 10.125C11.5859 10.125 11.4219 10.1523 11.2852 10.1797L10.4375 9.52344C10.8477 9.35938 11.2852 9.25 11.7227 9.25C13.6641 9.25 15.25 10.8359 15.25 12.75Z" fill="#393939"/>
</svg>
