<svg width="24" height="21" viewBox="0 0 24 21" fill="none" xmlns="http://www.w3.org/2000/svg">
<path d="M22.7656 10.0312C23.0391 10.2656 23.0391 10.6562 22.8047 10.9297C22.6094 11.2031 22.2188 11.2031 21.9453 10.9688L20.5 9.67969V17.375C20.5 19.1328 19.0938 20.5 17.375 20.5H6.125C4.36719 20.5 3 19.1328 3 17.375V9.67969L1.51562 10.9688C1.24219 11.2031 0.851562 11.2031 0.65625 10.9297C0.421875 10.6562 0.421875 10.2656 0.695312 10.0312L11.3203 0.695312C11.5547 0.460938 11.9062 0.460938 12.1406 0.695312L22.7656 10.0312ZM6.125 19.25H8.625V13C8.625 12.3359 9.17188 11.75 9.875 11.75H13.625C14.2891 11.75 14.875 12.3359 14.875 13V19.25H17.375C18.3906 19.25 19.25 18.4297 19.25 17.375V8.58594L11.75 1.98438L4.25 8.58594V17.375C4.25 18.4297 5.07031 19.25 6.125 19.25ZM9.875 19.25H13.625V13H9.875V19.25Z" fill="white"/>
</svg>
