<svg width="25" height="21" viewBox="0 0 25 21" fill="none" xmlns="http://www.w3.org/2000/svg">
<path d="M13.125 9.875H24.375C24.6875 9.875 25 10.1875 25 10.5C25 10.8516 24.6875 11.125 24.375 11.125H19.375V13H21.875C22.8906 13 23.75 13.8594 23.75 14.875V18.625C23.75 19.6797 22.8906 20.5 21.875 20.5H15.625C14.5703 20.5 13.75 19.6797 13.75 18.625V14.875C13.75 13.8594 14.5703 13 15.625 13H18.125V11.125H6.875V13H9.375C10.3906 13 11.25 13.8594 11.25 14.875V18.625C11.25 19.6797 10.3906 20.5 9.375 20.5H3.125C2.07031 20.5 1.25 19.6797 1.25 18.625V14.875C1.25 13.8594 2.07031 13 3.125 13H5.625V11.125H0.625C0.273438 11.125 0 10.8516 0 10.5C0 10.1875 0.273438 9.875 0.625 9.875H11.875V8H9.375C8.32031 8 7.5 7.17969 7.5 6.125V2.375C7.5 1.35938 8.32031 0.5 9.375 0.5H15.625C16.6406 0.5 17.5 1.35938 17.5 2.375V6.125C17.5 7.17969 16.6406 8 15.625 8H13.125V9.875ZM15.625 1.75H9.375C9.02344 1.75 8.75 2.0625 8.75 2.375V6.125C8.75 6.47656 9.02344 6.75 9.375 6.75H15.625C15.9375 6.75 16.25 6.47656 16.25 6.125V2.375C16.25 2.0625 15.9375 1.75 15.625 1.75ZM15.625 14.25C15.2734 14.25 15 14.5625 15 14.875V18.625C15 18.9766 15.2734 19.25 15.625 19.25H21.875C22.1875 19.25 22.5 18.9766 22.5 18.625V14.875C22.5 14.5625 22.1875 14.25 21.875 14.25H15.625ZM3.125 14.25C2.77344 14.25 2.5 14.5625 2.5 14.875V18.625C2.5 18.9766 2.77344 19.25 3.125 19.25H9.375C9.6875 19.25 10 18.9766 10 18.625V14.875C10 14.5625 9.6875 14.25 9.375 14.25H3.125Z" fill="white"/>
</svg>
