<svg width="21" height="21" viewBox="0 0 21 21" fill="none" xmlns="http://www.w3.org/2000/svg">
<path d="M15.0781 1.89844C16.0547 0.921875 17.6562 0.921875 18.6328 1.89844L19.1016 2.36719C20.0781 3.34375 20.0781 4.94531 19.1016 5.92188L10.5078 14.5156C10.1562 14.8672 9.72656 15.0625 9.29688 15.1797L5.74219 16C5.54688 16.0391 5.3125 16 5.15625 15.8438C5 15.6875 4.96094 15.4531 5 15.2578L5.82031 11.7031C5.9375 11.2734 6.13281 10.8438 6.48438 10.4922L15.0781 1.89844ZM17.7344 2.79688C17.2656 2.28906 16.4453 2.28906 15.9766 2.79688L14.9219 3.8125L17.1875 6.07812L18.2031 5.02344C18.7109 4.55469 18.7109 3.73438 18.2031 3.26562L17.7344 2.79688ZM7.03125 11.9766L6.44531 14.5547L8.98438 13.9688C9.21875 13.9297 9.45312 13.8125 9.60938 13.6172L16.2891 6.9375L14.0625 4.71094L7.38281 11.3906C7.1875 11.5469 7.07031 11.7812 7.03125 11.9766ZM8.125 3.5C8.4375 3.5 8.75 3.8125 8.75 4.125C8.75 4.47656 8.4375 4.75 8.125 4.75H3.125C2.07031 4.75 1.25 5.60938 1.25 6.625V17.875C1.25 18.9297 2.07031 19.75 3.125 19.75H14.375C15.3906 19.75 16.25 18.9297 16.25 17.875V12.875C16.25 12.5625 16.5234 12.25 16.875 12.25C17.1875 12.25 17.5 12.5625 17.5 12.875V17.875C17.5 19.6328 16.0938 21 14.375 21H3.125C1.36719 21 0 19.6328 0 17.875V6.625C0 4.90625 1.36719 3.5 3.125 3.5H8.125Z" fill="#112B83"/>
</svg>
