<svg width="15" height="15" viewBox="0 0 15 15" fill="none" xmlns="http://www.w3.org/2000/svg">
<path d="M13.8633 14.0117C14.0273 14.1758 14.0273 14.4766 13.8633 14.6406C13.7812 14.7227 13.6719 14.75 13.5625 14.75C13.4258 14.75 13.3164 14.7227 13.207 14.6406L9.35156 10.7578C8.33984 11.6328 7.05469 12.125 5.66016 12.125C2.54297 12.125 0 9.58203 0 6.4375C0 3.32031 2.51562 0.75 5.66016 0.75C8.77734 0.75 11.3477 3.32031 11.3477 6.4375C11.3477 7.85938 10.8555 9.14453 9.98047 10.1562L13.8633 14.0117ZM5.6875 11.25C8.33984 11.25 10.5 9.11719 10.5 6.4375C10.5 3.78516 8.33984 1.625 5.6875 1.625C3.00781 1.625 0.875 3.78516 0.875 6.4375C0.875 9.08984 3.00781 11.25 5.6875 11.25Z" fill="white"/>
</svg>
