<svg width="18" height="21" viewBox="0 0 18 21" fill="none" xmlns="http://www.w3.org/2000/svg">
<path d="M9.25 10.5C6.47656 10.5 4.25 8.27344 4.25 5.5C4.25 2.76562 6.47656 0.5 9.25 0.5C11.9844 0.5 14.25 2.76562 14.25 5.5C14.25 8.27344 11.9844 10.5 9.25 10.5ZM9.25 1.75C7.17969 1.75 5.5 3.46875 5.5 5.5C5.5 7.57031 7.17969 9.25 9.25 9.25C11.2812 9.25 13 7.57031 13 5.5C13 3.46875 11.2812 1.75 9.25 1.75ZM11.2031 12.375C14.9531 12.375 18 15.4219 18 19.1719C18 19.9141 17.375 20.5 16.6328 20.5H1.82812C1.08594 20.5 0.5 19.9141 0.5 19.1719C0.5 15.4219 3.50781 12.375 7.25781 12.375H11.2031ZM16.6328 19.25C16.6719 19.25 16.75 19.2109 16.75 19.1719C16.75 16.125 14.25 13.625 11.2031 13.625H7.25781C4.21094 13.625 1.75 16.125 1.75 19.1719C1.75 19.2109 1.78906 19.25 1.82812 19.25H16.6328Z" fill="white"/>
</svg>
